<?xml version="1.0" encoding="UTF-8" standalone="no"?><svg xmlns="http://www.w3.org/2000/svg" xmlns:xlink="http://www.w3.org/1999/xlink" contentStyleType="text/css" height="594px" preserveAspectRatio="none" style="width:2989px;height:594px;background:#FFFFFF;" version="1.1" viewBox="0 0 2989 594" width="2989px" zoomAndPan="magnify"><defs/><g><!--class dimorphos.animiertebildsequenz.AnimierteBildSequenz--><g id="elem_dimorphos.animiertebildsequenz.AnimierteBildSequenz"><rect codeLine="2" fill="#F1F1F1" height="276.1563" id="dimorphos.animiertebildsequenz.AnimierteBildSequenz" rx="2.5" ry="2.5" style="stroke:#181818;stroke-width:0.5;" width="719" x="7" y="48"/><ellipse cx="282.25" cy="64" fill="#ADD1B2" rx="11" ry="11" style="stroke:#181818;stroke-width:1.0;"/><path d="M284.5938,59.6719 C283.6563,59.2344 283.0625,59.0938 282.1875,59.0938 C279.5625,59.0938 277.5625,61.1719 277.5625,63.8906 L277.5625,65.0156 C277.5625,67.5938 279.6719,69.4844 282.5625,69.4844 C283.7813,69.4844 284.9375,69.1875 285.6875,68.6406 C286.2656,68.2344 286.5938,67.7813 286.5938,67.3906 C286.5938,66.9375 286.2031,66.5469 285.7344,66.5469 C285.5156,66.5469 285.3125,66.625 285.125,66.8125 C284.6719,67.2969 284.6719,67.2969 284.4844,67.3906 C284.0625,67.6563 283.375,67.7813 282.6094,67.7813 C280.5625,67.7813 279.2656,66.6875 279.2656,64.9844 L279.2656,63.8906 C279.2656,62.1094 280.5156,60.7969 282.25,60.7969 C282.8281,60.7969 283.4375,60.9531 283.9063,61.2031 C284.3906,61.4844 284.5625,61.7031 284.6563,62.1094 C284.7188,62.5156 284.75,62.6406 284.8906,62.7656 C285.0313,62.9063 285.2656,63.0156 285.4844,63.0156 C285.75,63.0156 286.0156,62.875 286.1875,62.6563 C286.2969,62.5 286.3281,62.3125 286.3281,61.8906 L286.3281,60.4688 C286.3281,60.0313 286.3125,59.9063 286.2188,59.75 C286.0625,59.4844 285.7813,59.3438 285.4844,59.3438 C285.1875,59.3438 284.9844,59.4375 284.7656,59.75 L284.5938,59.6719 Z " fill="#000000"/><text fill="#000000" font-family="sans-serif" font-size="14" lengthAdjust="spacing" textLength="160" x="302.75" y="68.8467">AnimierteBildSequenz</text><line style="stroke:#181818;stroke-width:0.5;" x1="8" x2="725" y1="80" y2="80"/><text fill="#000000" font-family="sans-serif" font-size="14" lengthAdjust="spacing" textLength="170" x="13" y="96.9951">animierte_bild_sequenz</text><text fill="#000000" font-family="sans-serif" font-size="14" lengthAdjust="spacing" textLength="145" x="13" y="113.292">anzahl_einzel_bilder</text><text fill="#000000" font-family="sans-serif" font-size="14" lengthAdjust="spacing" textLength="168" x="13" y="129.5889">anzahl_pixel_horizontal</text><text fill="#000000" font-family="sans-serif" font-size="14" lengthAdjust="spacing" textLength="150" x="13" y="145.8857">anzahl_pixel_vertikal</text><text fill="#000000" font-family="sans-serif" font-size="14" lengthAdjust="spacing" textLength="177" x="13" y="162.1826">einzel_bild_nummer : int</text><text fill="#000000" font-family="sans-serif" font-size="14" lengthAdjust="spacing" textLength="127" x="13" y="178.4795">einzel_bilder : list</text><text fill="#000000" font-family="sans-serif" font-size="14" lengthAdjust="spacing" textLength="193" x="13" y="194.7764">zeitschritt_einzel_bild : int</text><text fill="#000000" font-family="sans-serif" font-size="14" lengthAdjust="spacing" textLength="228" x="13" y="211.0732">zeitschritt_einzel_bild_schwelle</text><text fill="#000000" font-family="sans-serif" font-size="14" lengthAdjust="spacing" textLength="102" x="13" y="227.3701">zyklisch : bool</text><line style="stroke:#181818;stroke-width:0.5;" x1="8" x2="725" y1="234.6719" y2="234.6719"/><text fill="#000000" font-family="sans-serif" font-size="14" lengthAdjust="spacing" textLength="72" x="13" y="251.667">beendet()</text><text fill="#000000" font-family="sans-serif" font-size="14" lengthAdjust="spacing" textLength="293" x="13" y="267.9639">erstelle_einzel_bild(einzel_bild_nummer)</text><text fill="#000000" font-family="sans-serif" font-size="14" lengthAdjust="spacing" textLength="303" x="13" y="284.2607">naechste_einzel_bild_nummer(zeitschritt)</text><text fill="#000000" font-family="sans-serif" font-size="14" lengthAdjust="spacing" textLength="48" x="13" y="300.5576">reset()</text><text fill="#000000" font-family="sans-serif" font-size="14" lengthAdjust="spacing" textLength="707" x="13" y="316.8545">zeichne_einzel_bild(oberflaeche, position, winkel, radius, skalierung, farbe, additive_farbmischung)</text></g><!--class dimorphos.ansicht.Ansicht--><g id="elem_dimorphos.ansicht.Ansicht"><rect codeLine="18" fill="#F1F1F1" height="129.4844" id="dimorphos.ansicht.Ansicht" rx="2.5" ry="2.5" style="stroke:#181818;stroke-width:0.5;" width="281" x="982" y="441.5"/><ellipse cx="1091.25" cy="457.5" fill="#ADD1B2" rx="11" ry="11" style="stroke:#181818;stroke-width:1.0;"/><path d="M1093.5938,453.1719 C1092.6563,452.7344 1092.0625,452.5938 1091.1875,452.5938 C1088.5625,452.5938 1086.5625,454.6719 1086.5625,457.3906 L1086.5625,458.5156 C1086.5625,461.0938 1088.6719,462.9844 1091.5625,462.9844 C1092.7813,462.9844 1093.9375,462.6875 1094.6875,462.1406 C1095.2656,461.7344 1095.5938,461.2813 1095.5938,460.8906 C1095.5938,460.4375 1095.2031,460.0469 1094.7344,460.0469 C1094.5156,460.0469 1094.3125,460.125 1094.125,460.3125 C1093.6719,460.7969 1093.6719,460.7969 1093.4844,460.8906 C1093.0625,461.1563 1092.375,461.2813 1091.6094,461.2813 C1089.5625,461.2813 1088.2656,460.1875 1088.2656,458.4844 L1088.2656,457.3906 C1088.2656,455.6094 1089.5156,454.2969 1091.25,454.2969 C1091.8281,454.2969 1092.4375,454.4531 1092.9063,454.7031 C1093.3906,454.9844 1093.5625,455.2031 1093.6563,455.6094 C1093.7188,456.0156 1093.75,456.1406 1093.8906,456.2656 C1094.0313,456.4063 1094.2656,456.5156 1094.4844,456.5156 C1094.75,456.5156 1095.0156,456.375 1095.1875,456.1563 C1095.2969,456 1095.3281,455.8125 1095.3281,455.3906 L1095.3281,453.9688 C1095.3281,453.5313 1095.3125,453.4063 1095.2188,453.25 C1095.0625,452.9844 1094.7813,452.8438 1094.4844,452.8438 C1094.1875,452.8438 1093.9844,452.9375 1093.7656,453.25 L1093.5938,453.1719 Z " fill="#000000"/><text fill="#000000" font-family="sans-serif" font-size="14" lengthAdjust="spacing" textLength="54" x="1111.75" y="462.3467">Ansicht</text><line style="stroke:#181818;stroke-width:0.5;" x1="983" x2="1262" y1="473.5" y2="473.5"/><text fill="#000000" font-family="sans-serif" font-size="14" lengthAdjust="spacing" textLength="63" x="988" y="490.4951">leinwand</text><line style="stroke:#181818;stroke-width:0.5;" x1="983" x2="1262" y1="497.7969" y2="497.7969"/><text fill="#000000" font-family="sans-serif" font-size="14" lengthAdjust="spacing" textLength="227" x="988" y="514.792">behandle_eingaben(zeitschritt)</text><text fill="#000000" font-family="sans-serif" font-size="14" lengthAdjust="spacing" textLength="245" x="988" y="531.0889">behandle_spiele_logik(zeitschritt)</text><text fill="#000000" font-family="sans-serif" font-size="14" lengthAdjust="spacing" textLength="207" x="988" y="547.3857">initialisiere_spiel_elemente()</text><text fill="#000000" font-family="sans-serif" font-size="14" lengthAdjust="spacing" textLength="269" x="988" y="563.6826">zeichne_spiele_elemente(zeitschritt)</text></g><!--class dimorphos.spielelement.Asteroid--><g id="elem_dimorphos.spielelement.Asteroid"><rect codeLine="25" fill="#F1F1F1" height="178.375" id="dimorphos.spielelement.Asteroid" rx="2.5" ry="2.5" style="stroke:#181818;stroke-width:0.5;" width="303" x="1520" y="97"/><ellipse cx="1636.75" cy="113" fill="#ADD1B2" rx="11" ry="11" style="stroke:#181818;stroke-width:1.0;"/><path d="M1639.0938,108.6719 C1638.1563,108.2344 1637.5625,108.0938 1636.6875,108.0938 C1634.0625,108.0938 1632.0625,110.1719 1632.0625,112.8906 L1632.0625,114.0156 C1632.0625,116.5938 1634.1719,118.4844 1637.0625,118.4844 C1638.2813,118.4844 1639.4375,118.1875 1640.1875,117.6406 C1640.7656,117.2344 1641.0938,116.7813 1641.0938,116.3906 C1641.0938,115.9375 1640.7031,115.5469 1640.2344,115.5469 C1640.0156,115.5469 1639.8125,115.625 1639.625,115.8125 C1639.1719,116.2969 1639.1719,116.2969 1638.9844,116.3906 C1638.5625,116.6563 1637.875,116.7813 1637.1094,116.7813 C1635.0625,116.7813 1633.7656,115.6875 1633.7656,113.9844 L1633.7656,112.8906 C1633.7656,111.1094 1635.0156,109.7969 1636.75,109.7969 C1637.3281,109.7969 1637.9375,109.9531 1638.4063,110.2031 C1638.8906,110.4844 1639.0625,110.7031 1639.1563,111.1094 C1639.2188,111.5156 1639.25,111.6406 1639.3906,111.7656 C1639.5313,111.9063 1639.7656,112.0156 1639.9844,112.0156 C1640.25,112.0156 1640.5156,111.875 1640.6875,111.6563 C1640.7969,111.5 1640.8281,111.3125 1640.8281,110.8906 L1640.8281,109.4688 C1640.8281,109.0313 1640.8125,108.9063 1640.7188,108.75 C1640.5625,108.4844 1640.2813,108.3438 1639.9844,108.3438 C1639.6875,108.3438 1639.4844,108.4375 1639.2656,108.75 L1639.0938,108.6719 Z " fill="#000000"/><text fill="#000000" font-family="sans-serif" font-size="14" lengthAdjust="spacing" textLength="61" x="1657.25" y="117.8467">Asteroid</text><line style="stroke:#181818;stroke-width:0.5;" x1="1521" x2="1822" y1="129" y2="129"/><text fill="#000000" font-family="sans-serif" font-size="14" lengthAdjust="spacing" textLength="291" x="1526" y="145.9951">DREH_GESCHWINDIGKEIT_MAXIMUM : int</text><text fill="#000000" font-family="sans-serif" font-size="14" lengthAdjust="spacing" textLength="244" x="1526" y="162.292">GESCHWINDIGKEIT_MAXIMUM : int</text><text fill="#000000" font-family="sans-serif" font-size="14" lengthAdjust="spacing" textLength="238" x="1526" y="178.5889">GESCHWINDIGKEIT_MINIMUM : int</text><text fill="#000000" font-family="sans-serif" font-size="14" lengthAdjust="spacing" textLength="157" x="1526" y="194.8857">dreh_geschwindigkeit</text><text fill="#000000" font-family="sans-serif" font-size="14" lengthAdjust="spacing" textLength="89" x="1526" y="211.1826">groesse : int</text><text fill="#000000" font-family="sans-serif" font-size="14" lengthAdjust="spacing" textLength="79" x="1526" y="227.4795">winkel : int</text><line style="stroke:#181818;stroke-width:0.5;" x1="1521" x2="1822" y1="234.7813" y2="234.7813"/><text fill="#000000" font-family="sans-serif" font-size="14" lengthAdjust="spacing" textLength="238" x="1526" y="251.7764">bewege(oberflaeche, zeitschritt)</text><text fill="#000000" font-family="sans-serif" font-size="14" lengthAdjust="spacing" textLength="237" x="1526" y="268.0732">zeichne(oberflaeche, zeitschritt)</text></g><!--class dimorphos.dimorphos.Dimorphos--><g id="elem_dimorphos.dimorphos.Dimorphos"><rect codeLine="35" fill="#F1F1F1" height="227.2656" id="dimorphos.dimorphos.Dimorphos" rx="2.5" ry="2.5" style="stroke:#181818;stroke-width:0.5;" width="269" x="2713" y="72.5"/><ellipse cx="2803.75" cy="88.5" fill="#ADD1B2" rx="11" ry="11" style="stroke:#181818;stroke-width:1.0;"/><path d="M2806.0938,84.1719 C2805.1563,83.7344 2804.5625,83.5938 2803.6875,83.5938 C2801.0625,83.5938 2799.0625,85.6719 2799.0625,88.3906 L2799.0625,89.5156 C2799.0625,92.0938 2801.1719,93.9844 2804.0625,93.9844 C2805.2813,93.9844 2806.4375,93.6875 2807.1875,93.1406 C2807.7656,92.7344 2808.0938,92.2813 2808.0938,91.8906 C2808.0938,91.4375 2807.7031,91.0469 2807.2344,91.0469 C2807.0156,91.0469 2806.8125,91.125 2806.625,91.3125 C2806.1719,91.7969 2806.1719,91.7969 2805.9844,91.8906 C2805.5625,92.1563 2804.875,92.2813 2804.1094,92.2813 C2802.0625,92.2813 2800.7656,91.1875 2800.7656,89.4844 L2800.7656,88.3906 C2800.7656,86.6094 2802.0156,85.2969 2803.75,85.2969 C2804.3281,85.2969 2804.9375,85.4531 2805.4063,85.7031 C2805.8906,85.9844 2806.0625,86.2031 2806.1563,86.6094 C2806.2188,87.0156 2806.25,87.1406 2806.3906,87.2656 C2806.5313,87.4063 2806.7656,87.5156 2806.9844,87.5156 C2807.25,87.5156 2807.5156,87.375 2807.6875,87.1563 C2807.7969,87 2807.8281,86.8125 2807.8281,86.3906 L2807.8281,84.9688 C2807.8281,84.5313 2807.8125,84.4063 2807.7188,84.25 C2807.5625,83.9844 2807.2813,83.8438 2806.9844,83.8438 C2806.6875,83.8438 2806.4844,83.9375 2806.2656,84.25 L2806.0938,84.1719 Z " fill="#000000"/><text fill="#000000" font-family="sans-serif" font-size="14" lengthAdjust="spacing" textLength="79" x="2824.25" y="93.3467">Dimorphos</text><line style="stroke:#181818;stroke-width:0.5;" x1="2714" x2="2981" y1="104.5" y2="104.5"/><text fill="#000000" font-family="sans-serif" font-size="14" lengthAdjust="spacing" textLength="207" x="2719" y="121.4951">DIMORPHOS_APPDATA_PATH</text><text fill="#000000" font-family="sans-serif" font-size="14" lengthAdjust="spacing" textLength="146" x="2719" y="137.792">LEVEL_ANSICHT : int</text><text fill="#000000" font-family="sans-serif" font-size="14" lengthAdjust="spacing" textLength="149" x="2719" y="154.0889">START_ANSICHT : int</text><text fill="#000000" font-family="sans-serif" font-size="14" lengthAdjust="spacing" textLength="221" x="2719" y="170.3857">TIME_CLOCK_TICK_FPS_60 : int</text><text fill="#000000" font-family="sans-serif" font-size="14" lengthAdjust="spacing" textLength="150" x="2719" y="186.6826">aktuelle_ansicht : int</text><text fill="#000000" font-family="sans-serif" font-size="14" lengthAdjust="spacing" textLength="105" x="2719" y="202.9795">ansichten : list</text><text fill="#000000" font-family="sans-serif" font-size="14" lengthAdjust="spacing" textLength="257" x="2719" y="219.2764">endlos_schleife_laeuft_weiter : bool</text><text fill="#000000" font-family="sans-serif" font-size="14" lengthAdjust="spacing" textLength="111" x="2719" y="235.5732">highscore : dict</text><text fill="#000000" font-family="sans-serif" font-size="14" lengthAdjust="spacing" textLength="79" x="2719" y="251.8701">letzte_zeit</text><text fill="#000000" font-family="sans-serif" font-size="14" lengthAdjust="spacing" textLength="23" x="2719" y="268.167">uhr</text><line style="stroke:#181818;stroke-width:0.5;" x1="2714" x2="2981" y1="275.4688" y2="275.4688"/><text fill="#000000" font-family="sans-serif" font-size="14" lengthAdjust="spacing" textLength="120" x="2719" y="292.4639">endlos_schleife()</text></g><!--class dimorphos.spielelement.Explosion--><g id="elem_dimorphos.spielelement.Explosion"><rect codeLine="48" fill="#F1F1F1" height="145.7813" id="dimorphos.spielelement.Explosion" rx="2.5" ry="2.5" style="stroke:#181818;stroke-width:0.5;" width="250" x="1858.5" y="113"/><ellipse cx="1944.75" cy="129" fill="#ADD1B2" rx="11" ry="11" style="stroke:#181818;stroke-width:1.0;"/><path d="M1947.0938,124.6719 C1946.1563,124.2344 1945.5625,124.0938 1944.6875,124.0938 C1942.0625,124.0938 1940.0625,126.1719 1940.0625,128.8906 L1940.0625,130.0156 C1940.0625,132.5938 1942.1719,134.4844 1945.0625,134.4844 C1946.2813,134.4844 1947.4375,134.1875 1948.1875,133.6406 C1948.7656,133.2344 1949.0938,132.7813 1949.0938,132.3906 C1949.0938,131.9375 1948.7031,131.5469 1948.2344,131.5469 C1948.0156,131.5469 1947.8125,131.625 1947.625,131.8125 C1947.1719,132.2969 1947.1719,132.2969 1946.9844,132.3906 C1946.5625,132.6563 1945.875,132.7813 1945.1094,132.7813 C1943.0625,132.7813 1941.7656,131.6875 1941.7656,129.9844 L1941.7656,128.8906 C1941.7656,127.1094 1943.0156,125.7969 1944.75,125.7969 C1945.3281,125.7969 1945.9375,125.9531 1946.4063,126.2031 C1946.8906,126.4844 1947.0625,126.7031 1947.1563,127.1094 C1947.2188,127.5156 1947.25,127.6406 1947.3906,127.7656 C1947.5313,127.9063 1947.7656,128.0156 1947.9844,128.0156 C1948.25,128.0156 1948.5156,127.875 1948.6875,127.6563 C1948.7969,127.5 1948.8281,127.3125 1948.8281,126.8906 L1948.8281,125.4688 C1948.8281,125.0313 1948.8125,124.9063 1948.7188,124.75 C1948.5625,124.4844 1948.2813,124.3438 1947.9844,124.3438 C1947.6875,124.3438 1947.4844,124.4375 1947.2656,124.75 L1947.0938,124.6719 Z " fill="#000000"/><text fill="#000000" font-family="sans-serif" font-size="14" lengthAdjust="spacing" textLength="69" x="1965.25" y="133.8467">Explosion</text><line style="stroke:#181818;stroke-width:0.5;" x1="1859.5" x2="2107.5" y1="145" y2="145"/><text fill="#000000" font-family="sans-serif" font-size="14" lengthAdjust="spacing" textLength="124" x="1864.5" y="161.9951">SCHWARZ : tuple</text><text fill="#000000" font-family="sans-serif" font-size="14" lengthAdjust="spacing" textLength="69" x="1864.5" y="178.292">explosion</text><text fill="#000000" font-family="sans-serif" font-size="14" lengthAdjust="spacing" textLength="75" x="1864.5" y="194.5889">radius : int</text><text fill="#000000" font-family="sans-serif" font-size="14" lengthAdjust="spacing" textLength="101" x="1864.5" y="210.8857">ton_explosion</text><line style="stroke:#181818;stroke-width:0.5;" x1="1859.5" x2="2107.5" y1="218.1875" y2="218.1875"/><text fill="#000000" font-family="sans-serif" font-size="14" lengthAdjust="spacing" textLength="238" x="1864.5" y="235.1826">bewege(oberflaeche, zeitschritt)</text><text fill="#000000" font-family="sans-serif" font-size="14" lengthAdjust="spacing" textLength="237" x="1864.5" y="251.4795">zeichne(oberflaeche, zeitschritt)</text></g><!--class dimorphos.spielelement.Laser--><g id="elem_dimorphos.spielelement.Laser"><rect codeLine="56" fill="#F1F1F1" height="96.8906" id="dimorphos.spielelement.Laser" rx="2.5" ry="2.5" style="stroke:#181818;stroke-width:0.5;" width="250" x="2143.5" y="137.5"/><ellipse cx="2245.25" cy="153.5" fill="#ADD1B2" rx="11" ry="11" style="stroke:#181818;stroke-width:1.0;"/><path d="M2247.5938,149.1719 C2246.6563,148.7344 2246.0625,148.5938 2245.1875,148.5938 C2242.5625,148.5938 2240.5625,150.6719 2240.5625,153.3906 L2240.5625,154.5156 C2240.5625,157.0938 2242.6719,158.9844 2245.5625,158.9844 C2246.7813,158.9844 2247.9375,158.6875 2248.6875,158.1406 C2249.2656,157.7344 2249.5938,157.2813 2249.5938,156.8906 C2249.5938,156.4375 2249.2031,156.0469 2248.7344,156.0469 C2248.5156,156.0469 2248.3125,156.125 2248.125,156.3125 C2247.6719,156.7969 2247.6719,156.7969 2247.4844,156.8906 C2247.0625,157.1563 2246.375,157.2813 2245.6094,157.2813 C2243.5625,157.2813 2242.2656,156.1875 2242.2656,154.4844 L2242.2656,153.3906 C2242.2656,151.6094 2243.5156,150.2969 2245.25,150.2969 C2245.8281,150.2969 2246.4375,150.4531 2246.9063,150.7031 C2247.3906,150.9844 2247.5625,151.2031 2247.6563,151.6094 C2247.7188,152.0156 2247.75,152.1406 2247.8906,152.2656 C2248.0313,152.4063 2248.2656,152.5156 2248.4844,152.5156 C2248.75,152.5156 2249.0156,152.375 2249.1875,152.1563 C2249.2969,152 2249.3281,151.8125 2249.3281,151.3906 L2249.3281,149.9688 C2249.3281,149.5313 2249.3125,149.4063 2249.2188,149.25 C2249.0625,148.9844 2248.7813,148.8438 2248.4844,148.8438 C2248.1875,148.8438 2247.9844,148.9375 2247.7656,149.25 L2247.5938,149.1719 Z " fill="#000000"/><text fill="#000000" font-family="sans-serif" font-size="14" lengthAdjust="spacing" textLength="38" x="2265.75" y="158.3467">Laser</text><line style="stroke:#181818;stroke-width:0.5;" x1="2144.5" x2="2392.5" y1="169.5" y2="169.5"/><text fill="#000000" font-family="sans-serif" font-size="14" lengthAdjust="spacing" textLength="59" x="2149.5" y="186.4951">position</text><line style="stroke:#181818;stroke-width:0.5;" x1="2144.5" x2="2392.5" y1="193.7969" y2="193.7969"/><text fill="#000000" font-family="sans-serif" font-size="14" lengthAdjust="spacing" textLength="238" x="2149.5" y="210.792">bewege(oberflaeche, zeitschritt)</text><text fill="#000000" font-family="sans-serif" font-size="14" lengthAdjust="spacing" textLength="237" x="2149.5" y="227.0889">zeichne(oberflaeche, zeitschritt)</text></g><!--class dimorphos.ansicht.LevelAnsicht--><g id="elem_dimorphos.ansicht.LevelAnsicht"><rect codeLine="61" fill="#F1F1F1" height="357.6406" id="dimorphos.ansicht.LevelAnsicht" rx="2.5" ry="2.5" style="stroke:#181818;stroke-width:0.5;" width="344" x="761.5" y="7"/><ellipse cx="883.25" cy="23" fill="#ADD1B2" rx="11" ry="11" style="stroke:#181818;stroke-width:1.0;"/><path d="M885.5938,18.6719 C884.6563,18.2344 884.0625,18.0938 883.1875,18.0938 C880.5625,18.0938 878.5625,20.1719 878.5625,22.8906 L878.5625,24.0156 C878.5625,26.5938 880.6719,28.4844 883.5625,28.4844 C884.7813,28.4844 885.9375,28.1875 886.6875,27.6406 C887.2656,27.2344 887.5938,26.7813 887.5938,26.3906 C887.5938,25.9375 887.2031,25.5469 886.7344,25.5469 C886.5156,25.5469 886.3125,25.625 886.125,25.8125 C885.6719,26.2969 885.6719,26.2969 885.4844,26.3906 C885.0625,26.6563 884.375,26.7813 883.6094,26.7813 C881.5625,26.7813 880.2656,25.6875 880.2656,23.9844 L880.2656,22.8906 C880.2656,21.1094 881.5156,19.7969 883.25,19.7969 C883.8281,19.7969 884.4375,19.9531 884.9063,20.2031 C885.3906,20.4844 885.5625,20.7031 885.6563,21.1094 C885.7188,21.5156 885.75,21.6406 885.8906,21.7656 C886.0313,21.9063 886.2656,22.0156 886.4844,22.0156 C886.75,22.0156 887.0156,21.875 887.1875,21.6563 C887.2969,21.5 887.3281,21.3125 887.3281,20.8906 L887.3281,19.4688 C887.3281,19.0313 887.3125,18.9063 887.2188,18.75 C887.0625,18.4844 886.7813,18.3438 886.4844,18.3438 C886.1875,18.3438 885.9844,18.4375 885.7656,18.75 L885.5938,18.6719 Z " fill="#000000"/><text fill="#000000" font-family="sans-serif" font-size="14" lengthAdjust="spacing" textLength="92" x="903.75" y="27.8467">LevelAnsicht</text><line style="stroke:#181818;stroke-width:0.5;" x1="762.5" x2="1104.5" y1="39" y2="39"/><text fill="#000000" font-family="sans-serif" font-size="14" lengthAdjust="spacing" textLength="228" x="767.5" y="55.9951">MIN_ASTEROIDEN_DISTANZ : int</text><text fill="#000000" font-family="sans-serif" font-size="14" lengthAdjust="spacing" textLength="224" x="767.5" y="72.292">SPIEL_VORBEI_GEWONNEN : str</text><text fill="#000000" font-family="sans-serif" font-size="14" lengthAdjust="spacing" textLength="217" x="767.5" y="88.5889">SPIEL_VORBEI_VERLOREN : str</text><text fill="#000000" font-family="sans-serif" font-size="14" lengthAdjust="spacing" textLength="163" x="767.5" y="104.8857">anzahl_asteroiden : int</text><text fill="#000000" font-family="sans-serif" font-size="14" lengthAdjust="spacing" textLength="112" x="767.5" y="121.1826">asteroiden : list</text><text fill="#000000" font-family="sans-serif" font-size="14" lengthAdjust="spacing" textLength="122" x="767.5" y="137.4795">explosionen : list</text><text fill="#000000" font-family="sans-serif" font-size="14" lengthAdjust="spacing" textLength="85" x="767.5" y="153.7764">hintergrund</text><text fill="#000000" font-family="sans-serif" font-size="14" lengthAdjust="spacing" textLength="69" x="767.5" y="170.0732">laser : list</text><text fill="#000000" font-family="sans-serif" font-size="14" lengthAdjust="spacing" textLength="162" x="767.5" y="186.3701">raumschiff : NoneType</text><text fill="#000000" font-family="sans-serif" font-size="14" lengthAdjust="spacing" textLength="133" x="767.5" y="202.667">spiel_vorbei_farbe</text><text fill="#000000" font-family="sans-serif" font-size="14" lengthAdjust="spacing" textLength="187" x="767.5" y="218.9639">spiel_vorbei_schrift : Font</text><text fill="#000000" font-family="sans-serif" font-size="14" lengthAdjust="spacing" textLength="158" x="767.5" y="235.2607">spiel_vorbei_text : str</text><line style="stroke:#181818;stroke-width:0.5;" x1="762.5" x2="1104.5" y1="242.5625" y2="242.5625"/><text fill="#000000" font-family="sans-serif" font-size="14" lengthAdjust="spacing" textLength="332" x="767.5" y="259.5576">behandle_eingabe_ereignis(event, zeitschritt)</text><text fill="#000000" font-family="sans-serif" font-size="14" lengthAdjust="spacing" textLength="227" x="767.5" y="275.8545">behandle_eingaben(zeitschritt)</text><text fill="#000000" font-family="sans-serif" font-size="14" lengthAdjust="spacing" textLength="245" x="767.5" y="292.1514">behandle_spiele_logik(zeitschritt)</text><text fill="#000000" font-family="sans-serif" font-size="14" lengthAdjust="spacing" textLength="263" x="767.5" y="308.4482">explosion(position, geschwindigkeit)</text><text fill="#000000" font-family="sans-serif" font-size="14" lengthAdjust="spacing" textLength="207" x="767.5" y="324.7451">initialisiere_spiel_elemente()</text><text fill="#000000" font-family="sans-serif" font-size="14" lengthAdjust="spacing" textLength="125" x="767.5" y="341.042">level_gewonnen()</text><text fill="#000000" font-family="sans-serif" font-size="14" lengthAdjust="spacing" textLength="269" x="767.5" y="357.3389">zeichne_spiele_elemente(zeitschritt)</text></g><!--class dimorphos.spielelement.Raumschiff--><g id="elem_dimorphos.spielelement.Raumschiff"><rect codeLine="82" fill="#F1F1F1" height="276.1563" id="dimorphos.spielelement.Raumschiff" rx="2.5" ry="2.5" style="stroke:#181818;stroke-width:0.5;" width="249" x="2429" y="48"/><ellipse cx="2509.25" cy="64" fill="#ADD1B2" rx="11" ry="11" style="stroke:#181818;stroke-width:1.0;"/><path d="M2511.5938,59.6719 C2510.6563,59.2344 2510.0625,59.0938 2509.1875,59.0938 C2506.5625,59.0938 2504.5625,61.1719 2504.5625,63.8906 L2504.5625,65.0156 C2504.5625,67.5938 2506.6719,69.4844 2509.5625,69.4844 C2510.7813,69.4844 2511.9375,69.1875 2512.6875,68.6406 C2513.2656,68.2344 2513.5938,67.7813 2513.5938,67.3906 C2513.5938,66.9375 2513.2031,66.5469 2512.7344,66.5469 C2512.5156,66.5469 2512.3125,66.625 2512.125,66.8125 C2511.6719,67.2969 2511.6719,67.2969 2511.4844,67.3906 C2511.0625,67.6563 2510.375,67.7813 2509.6094,67.7813 C2507.5625,67.7813 2506.2656,66.6875 2506.2656,64.9844 L2506.2656,63.8906 C2506.2656,62.1094 2507.5156,60.7969 2509.25,60.7969 C2509.8281,60.7969 2510.4375,60.9531 2510.9063,61.2031 C2511.3906,61.4844 2511.5625,61.7031 2511.6563,62.1094 C2511.7188,62.5156 2511.75,62.6406 2511.8906,62.7656 C2512.0313,62.9063 2512.2656,63.0156 2512.4844,63.0156 C2512.75,63.0156 2513.0156,62.875 2513.1875,62.6563 C2513.2969,62.5 2513.3281,62.3125 2513.3281,61.8906 L2513.3281,60.4688 C2513.3281,60.0313 2513.3125,59.9063 2513.2188,59.75 C2513.0625,59.4844 2512.7813,59.3438 2512.4844,59.3438 C2512.1875,59.3438 2511.9844,59.4375 2511.7656,59.75 L2511.5938,59.6719 Z " fill="#000000"/><text fill="#000000" font-family="sans-serif" font-size="14" lengthAdjust="spacing" textLength="80" x="2529.75" y="68.8467">Raumschiff</text><line style="stroke:#181818;stroke-width:0.5;" x1="2430" x2="2677" y1="80" y2="80"/><text fill="#000000" font-family="sans-serif" font-size="14" lengthAdjust="spacing" textLength="162" x="2435" y="96.9951">BESCHLEUNIGUNG : int</text><text fill="#000000" font-family="sans-serif" font-size="14" lengthAdjust="spacing" textLength="221" x="2435" y="113.292">LASER_GESCHWINDIGKEIT : int</text><text fill="#000000" font-family="sans-serif" font-size="14" lengthAdjust="spacing" textLength="210" x="2435" y="129.5889">MANEUVRIERFAEHIGKEIT : int</text><text fill="#000000" font-family="sans-serif" font-size="14" lengthAdjust="spacing" textLength="124" x="2435" y="145.8857">SCHWARZ : tuple</text><text fill="#000000" font-family="sans-serif" font-size="14" lengthAdjust="spacing" textLength="138" x="2435" y="162.1826">beschleunigt : bool</text><text fill="#000000" font-family="sans-serif" font-size="14" lengthAdjust="spacing" textLength="87" x="2435" y="178.4795">bild_antrieb</text><text fill="#000000" font-family="sans-serif" font-size="14" lengthAdjust="spacing" textLength="117" x="2435" y="194.7764">geschwindigkeit</text><text fill="#000000" font-family="sans-serif" font-size="14" lengthAdjust="spacing" textLength="198" x="2435" y="211.0732">letzter_schuss_zeitstempel</text><text fill="#000000" font-family="sans-serif" font-size="14" lengthAdjust="spacing" textLength="60" x="2435" y="227.3701">richtung</text><text fill="#000000" font-family="sans-serif" font-size="14" lengthAdjust="spacing" textLength="142" x="2435" y="243.667">schuss_periode : int</text><line style="stroke:#181818;stroke-width:0.5;" x1="2430" x2="2677" y1="250.9688" y2="250.9688"/><text fill="#000000" font-family="sans-serif" font-size="14" lengthAdjust="spacing" textLength="181" x="2435" y="267.9639">beschleunige(zeitschritt)</text><text fill="#000000" font-family="sans-serif" font-size="14" lengthAdjust="spacing" textLength="149" x="2435" y="284.2607">drehe(uhrzeigersinn)</text><text fill="#000000" font-family="sans-serif" font-size="14" lengthAdjust="spacing" textLength="70" x="2435" y="300.5576">schiesse()</text><text fill="#000000" font-family="sans-serif" font-size="14" lengthAdjust="spacing" textLength="237" x="2435" y="316.8545">zeichne(oberflaeche, zeitschritt)</text></g><!--class dimorphos.spielelement.SpielElement--><g id="elem_dimorphos.spielelement.SpielElement"><rect codeLine="98" fill="#F1F1F1" height="162.0781" id="dimorphos.spielelement.SpielElement" rx="2.5" ry="2.5" style="stroke:#181818;stroke-width:0.5;" width="250" x="2000.5" y="425"/><ellipse cx="2072.75" cy="441" fill="#ADD1B2" rx="11" ry="11" style="stroke:#181818;stroke-width:1.0;"/><path d="M2075.0938,436.6719 C2074.1563,436.2344 2073.5625,436.0938 2072.6875,436.0938 C2070.0625,436.0938 2068.0625,438.1719 2068.0625,440.8906 L2068.0625,442.0156 C2068.0625,444.5938 2070.1719,446.4844 2073.0625,446.4844 C2074.2813,446.4844 2075.4375,446.1875 2076.1875,445.6406 C2076.7656,445.2344 2077.0938,444.7813 2077.0938,444.3906 C2077.0938,443.9375 2076.7031,443.5469 2076.2344,443.5469 C2076.0156,443.5469 2075.8125,443.625 2075.625,443.8125 C2075.1719,444.2969 2075.1719,444.2969 2074.9844,444.3906 C2074.5625,444.6563 2073.875,444.7813 2073.1094,444.7813 C2071.0625,444.7813 2069.7656,443.6875 2069.7656,441.9844 L2069.7656,440.8906 C2069.7656,439.1094 2071.0156,437.7969 2072.75,437.7969 C2073.3281,437.7969 2073.9375,437.9531 2074.4063,438.2031 C2074.8906,438.4844 2075.0625,438.7031 2075.1563,439.1094 C2075.2188,439.5156 2075.25,439.6406 2075.3906,439.7656 C2075.5313,439.9063 2075.7656,440.0156 2075.9844,440.0156 C2076.25,440.0156 2076.5156,439.875 2076.6875,439.6563 C2076.7969,439.5 2076.8281,439.3125 2076.8281,438.8906 L2076.8281,437.4688 C2076.8281,437.0313 2076.8125,436.9063 2076.7188,436.75 C2076.5625,436.4844 2076.2813,436.3438 2075.9844,436.3438 C2075.6875,436.3438 2075.4844,436.4375 2075.2656,436.75 L2075.0938,436.6719 Z " fill="#000000"/><text fill="#000000" font-family="sans-serif" font-size="14" lengthAdjust="spacing" textLength="97" x="2093.25" y="445.8467">SpielElement</text><line style="stroke:#181818;stroke-width:0.5;" x1="2001.5" x2="2249.5" y1="457" y2="457"/><text fill="#000000" font-family="sans-serif" font-size="14" lengthAdjust="spacing" textLength="27" x="2006.5" y="473.9951">bild</text><text fill="#000000" font-family="sans-serif" font-size="14" lengthAdjust="spacing" textLength="117" x="2006.5" y="490.292">geschwindigkeit</text><text fill="#000000" font-family="sans-serif" font-size="14" lengthAdjust="spacing" textLength="59" x="2006.5" y="506.5889">position</text><text fill="#000000" font-family="sans-serif" font-size="14" lengthAdjust="spacing" textLength="75" x="2006.5" y="522.8857">radius : int</text><line style="stroke:#181818;stroke-width:0.5;" x1="2001.5" x2="2249.5" y1="530.1875" y2="530.1875"/><text fill="#000000" font-family="sans-serif" font-size="14" lengthAdjust="spacing" textLength="238" x="2006.5" y="547.1826">bewege(oberflaeche, zeitschritt)</text><text fill="#000000" font-family="sans-serif" font-size="14" lengthAdjust="spacing" textLength="200" x="2006.5" y="563.4795">kollidiert(anderes_element)</text><text fill="#000000" font-family="sans-serif" font-size="14" lengthAdjust="spacing" textLength="237" x="2006.5" y="579.7764">zeichne(oberflaeche, zeitschritt)</text></g><!--class dimorphos.ansicht.StartAnsicht--><g id="elem_dimorphos.ansicht.StartAnsicht"><rect codeLine="107" fill="#F1F1F1" height="341.3438" id="dimorphos.ansicht.StartAnsicht" rx="2.5" ry="2.5" style="stroke:#181818;stroke-width:0.5;" width="344" x="1140.5" y="15.5"/><ellipse cx="1262.75" cy="31.5" fill="#ADD1B2" rx="11" ry="11" style="stroke:#181818;stroke-width:1.0;"/><path d="M1265.0938,27.1719 C1264.1563,26.7344 1263.5625,26.5938 1262.6875,26.5938 C1260.0625,26.5938 1258.0625,28.6719 1258.0625,31.3906 L1258.0625,32.5156 C1258.0625,35.0938 1260.1719,36.9844 1263.0625,36.9844 C1264.2813,36.9844 1265.4375,36.6875 1266.1875,36.1406 C1266.7656,35.7344 1267.0938,35.2813 1267.0938,34.8906 C1267.0938,34.4375 1266.7031,34.0469 1266.2344,34.0469 C1266.0156,34.0469 1265.8125,34.125 1265.625,34.3125 C1265.1719,34.7969 1265.1719,34.7969 1264.9844,34.8906 C1264.5625,35.1563 1263.875,35.2813 1263.1094,35.2813 C1261.0625,35.2813 1259.7656,34.1875 1259.7656,32.4844 L1259.7656,31.3906 C1259.7656,29.6094 1261.0156,28.2969 1262.75,28.2969 C1263.3281,28.2969 1263.9375,28.4531 1264.4063,28.7031 C1264.8906,28.9844 1265.0625,29.2031 1265.1563,29.6094 C1265.2188,30.0156 1265.25,30.1406 1265.3906,30.2656 C1265.5313,30.4063 1265.7656,30.5156 1265.9844,30.5156 C1266.25,30.5156 1266.5156,30.375 1266.6875,30.1563 C1266.7969,30 1266.8281,29.8125 1266.8281,29.3906 L1266.8281,27.9688 C1266.8281,27.5313 1266.8125,27.4063 1266.7188,27.25 C1266.5625,26.9844 1266.2813,26.8438 1265.9844,26.8438 C1265.6875,26.8438 1265.4844,26.9375 1265.2656,27.25 L1265.0938,27.1719 Z " fill="#000000"/><text fill="#000000" font-family="sans-serif" font-size="14" lengthAdjust="spacing" textLength="91" x="1283.25" y="36.3467">StartAnsicht</text><line style="stroke:#181818;stroke-width:0.5;" x1="1141.5" x2="1483.5" y1="47.5" y2="47.5"/><text fill="#000000" font-family="sans-serif" font-size="14" lengthAdjust="spacing" textLength="88" x="1146.5" y="64.4951">AUFWAERTS</text><text fill="#000000" font-family="sans-serif" font-size="14" lengthAdjust="spacing" textLength="163" x="1146.5" y="80.792">anzahl_asteroiden : int</text><text fill="#000000" font-family="sans-serif" font-size="14" lengthAdjust="spacing" textLength="112" x="1146.5" y="97.0889">asteroiden : list</text><text fill="#000000" font-family="sans-serif" font-size="14" lengthAdjust="spacing" textLength="221" x="1146.5" y="113.3857">ausgewaehltes_raumschiff : int</text><text fill="#000000" font-family="sans-serif" font-size="14" lengthAdjust="spacing" textLength="85" x="1146.5" y="129.6826">hintergrund</text><text fill="#000000" font-family="sans-serif" font-size="14" lengthAdjust="spacing" textLength="120" x="1146.5" y="145.9795">raumschiffe : list</text><text fill="#000000" font-family="sans-serif" font-size="14" lengthAdjust="spacing" textLength="122" x="1146.5" y="162.2764">spiel_start_farbe</text><text fill="#000000" font-family="sans-serif" font-size="14" lengthAdjust="spacing" textLength="176" x="1146.5" y="178.5732">spiel_start_schrift : Font</text><text fill="#000000" font-family="sans-serif" font-size="14" lengthAdjust="spacing" textLength="147" x="1146.5" y="194.8701">spiel_start_text : str</text><text fill="#000000" font-family="sans-serif" font-size="14" lengthAdjust="spacing" textLength="118" x="1146.5" y="211.167">spiel_titel_farbe</text><text fill="#000000" font-family="sans-serif" font-size="14" lengthAdjust="spacing" textLength="172" x="1146.5" y="227.4639">spiel_titel_schrift : Font</text><text fill="#000000" font-family="sans-serif" font-size="14" lengthAdjust="spacing" textLength="143" x="1146.5" y="243.7607">spiel_titel_text : str</text><line style="stroke:#181818;stroke-width:0.5;" x1="1141.5" x2="1483.5" y1="251.0625" y2="251.0625"/><text fill="#000000" font-family="sans-serif" font-size="14" lengthAdjust="spacing" textLength="332" x="1146.5" y="268.0576">behandle_eingabe_ereignis(event, zeitschritt)</text><text fill="#000000" font-family="sans-serif" font-size="14" lengthAdjust="spacing" textLength="227" x="1146.5" y="284.3545">behandle_eingaben(zeitschritt)</text><text fill="#000000" font-family="sans-serif" font-size="14" lengthAdjust="spacing" textLength="245" x="1146.5" y="300.6514">behandle_spiele_logik(zeitschritt)</text><text fill="#000000" font-family="sans-serif" font-size="14" lengthAdjust="spacing" textLength="207" x="1146.5" y="316.9482">initialisiere_spiel_elemente()</text><text fill="#000000" font-family="sans-serif" font-size="14" lengthAdjust="spacing" textLength="177" x="1146.5" y="333.2451">kann_ansicht_wechseln()</text><text fill="#000000" font-family="sans-serif" font-size="14" lengthAdjust="spacing" textLength="269" x="1146.5" y="349.542">zeichne_spiele_elemente(zeitschritt)</text></g><!--link dimorphos.ansicht.LevelAnsicht to dimorphos.ansicht.Ansicht--><g id="link_dimorphos.ansicht.LevelAnsicht_dimorphos.ansicht.Ansicht"><path codeLine="127" d="M1039.33,365.058 C1051.54,385.601 1063.49,405.714 1074.36,423.998 " fill="none" id="dimorphos.ansicht.LevelAnsicht-to-dimorphos.ansicht.Ansicht" style="stroke:#181818;stroke-width:1.0;"/><polygon fill="none" points="1080.42,420.5,1084.62,441.269,1068.39,427.653,1080.42,420.5" style="stroke:#181818;stroke-width:1.0;"/></g><!--link dimorphos.ansicht.StartAnsicht to dimorphos.ansicht.Ansicht--><g id="link_dimorphos.ansicht.StartAnsicht_dimorphos.ansicht.Ansicht"><path codeLine="128" d="M1211.1,356.707 C1197.08,380.176 1183.24,403.333 1170.82,424.12 " fill="none" id="dimorphos.ansicht.StartAnsicht-to-dimorphos.ansicht.Ansicht" style="stroke:#181818;stroke-width:1.0;"/><polygon fill="none" points="1176.8,427.771,1160.53,441.35,1164.78,420.59,1176.8,427.771" style="stroke:#181818;stroke-width:1.0;"/></g><!--link dimorphos.spielelement.Asteroid to dimorphos.spielelement.SpielElement--><g id="link_dimorphos.spielelement.Asteroid_dimorphos.spielelement.SpielElement"><path codeLine="129" d="M1744.31,275.2 C1772.57,306.04 1806.53,339.335 1841.5,365 C1884.24,396.372 1935.09,423.976 1981.86,446.2 " fill="none" id="dimorphos.spielelement.Asteroid-to-dimorphos.spielelement.SpielElement" style="stroke:#181818;stroke-width:1.0;"/><polygon fill="none" points="1985.07,439.972,2000.25,454.761,1979.16,452.664,1985.07,439.972" style="stroke:#181818;stroke-width:1.0;"/></g><!--link dimorphos.spielelement.Explosion to dimorphos.spielelement.SpielElement--><g id="link_dimorphos.spielelement.Explosion_dimorphos.spielelement.SpielElement"><path codeLine="130" d="M2015.72,259.159 C2035.15,302.676 2060.18,358.713 2081.42,406.294 " fill="none" id="dimorphos.spielelement.Explosion-to-dimorphos.spielelement.SpielElement" style="stroke:#181818;stroke-width:1.0;"/><polygon fill="none" points="2087.9,403.629,2089.66,424.746,2075.12,409.338,2087.9,403.629" style="stroke:#181818;stroke-width:1.0;"/></g><!--link dimorphos.spielelement.Laser to dimorphos.spielelement.SpielElement--><g id="link_dimorphos.spielelement.Laser_dimorphos.spielelement.SpielElement"><path codeLine="131" d="M2247.09,234.608 C2226.75,279.849 2195.53,349.271 2169.82,406.443 " fill="none" id="dimorphos.spielelement.Laser-to-dimorphos.spielelement.SpielElement" style="stroke:#181818;stroke-width:1.0;"/><polygon fill="none" points="2176.1,409.549,2161.51,424.919,2163.33,403.807,2176.1,409.549" style="stroke:#181818;stroke-width:1.0;"/></g><!--link dimorphos.spielelement.Raumschiff to dimorphos.spielelement.SpielElement--><g id="link_dimorphos.spielelement.Raumschiff_dimorphos.spielelement.SpielElement"><path codeLine="132" d="M2454.75,324.151 C2441.13,338.871 2426.61,352.875 2411.5,365 C2369.16,398.983 2317.21,427.497 2269.26,449.735 " fill="none" id="dimorphos.spielelement.Raumschiff-to-dimorphos.spielelement.SpielElement" style="stroke:#181818;stroke-width:1.0;"/><polygon fill="none" points="2271.87,456.24,2250.76,458.104,2266.1,443.484,2271.87,456.24" style="stroke:#181818;stroke-width:1.0;"/></g><!--SRC=[pLR1RkCs4BtdAuGzEO0twAc77WeeiH8BQyk6f2J5NWZQ6ak4PL8bgJZhjl_U8ILBiXmxSJU7NdRZUO-ZuV3D8nLeXzCDg88k8OA2Igg5TBZWSBNCgLBE5vUp3GEfuPRbIGH_bi1tNnogd8HjX2moeMxedh90YgeeDs-jS_wwSfo6JGoTr7mBx6YM4s1y1xa5GRRXWhrYD1EIxGJNDEyZBvYIhMsyau7mShC1wVpcCAuF8HlDcJBX7J2jbfbaMdU_tomxWHECRI7FmL1-h37PCiCr2o5C6Gi0de0UN9llIgKDiRjwS5odeN8AompPv1WUTEemL0cgpe_0CkE7wSK2v2etsM3e548npGGVEbl6rv0F7KaJLggXex1fU1ubJuVEYie5accI8Fa5YFczCRj2zFhgdrOJ2Z-dZsHWepSrQWyxnuAsb2Us7Hd-KRKWfGlW_Tqq15KmmFzoaR9rdyGuLeO5AoovPX8aRu1hEEX4dQJ13lAqEy56Iy6ItbQgnTNIcpt7RcWKUcFou4LtusS_6FaFtpm_9bFt3t_wE6taSZ7k1mTu8Y4ZAHXrCPwmT8srOpYL0fI2XbQTPFDp0Lj8uV3OUzshctE6qtHcj6z6hpNjNmsZQem_dONpyImYxdm-ScENpDruZC34U_8cn0qY_suSDyL6iHl6Hz7OdthaRZAx-qPY7_-vdqVarryQcAvrQQUebbeBLB-1joEDivSBPIOKDRX2DL4eLvfiSRDsykiXpLYQgQMGfgi9MsghMRt3yTjLJIypUPnjq6cKzreWXADrJaCDoVRAdBuRViTFwhAmxW5xt4or7SncRrfmqeK_zvWdL84yLxabsAht5lBvDS0BvESzfKknnU3843UAlN3cZxo0Z7mKLF2zbTVSHz4zpS9RpyTnVPu5WHSWghJieqzUE9c57RI-LcWzzbPKjSoweRtEzaVJ3MR81vcYgHhdosqB6r3ISeDDOAiLnW9S6FyeZ0OgCtiHQC7CEkzHqBPkPMH_Bsn11wY6Lzriek-s1EsIfPof0NQIwwFZ-XntRfenQE-RdezzoCHpSzpeW5l1iQ__mTV3fiVdjDsohAPkZIrFlCV0VtWC7ffJdxYH5_Ozlq6dRk0zFeM-5zwxthW77W_w0go7b9obklDKC7SyvLeoM1YZFxB-ofEaKK2fbFKcrEAc0BDQcgd06ze8ei8Ba4maqBaQcgz2_ypCPGC3j3cCf_XEOPnVLvcOkMq65mvpP1hiLGq-r_ikptRVzE3DlNTyfsUD7x2XjSXpbfZtvW3bYt9JU-bSkYzDfJvlKbsAtPBxUF_iUc4SNUmgj5IeVWfPhh7Y0yUe5XqwJ4k0DaSrLyeKrREJAdR2JIhmm4mgGEFDcVSoLR4JcIhmVs1Bx_hDcdA-VrJW4m7Vtv1VP3llt5XVl_xz- -cNyjKxKlhmwhUVhRtb9wVmwjstoyzcgjuIFvkbuzeVJVKl]--></g></svg>